<svg width="532" height="492" viewBox="0 0 532 492" fill="none" xmlns="http://www.w3.org/2000/svg">
<path fill-rule="evenodd" clip-rule="evenodd" d="M275.952 27.3107C268.793 21.8953 258.897 21.9375 251.785 27.4139L31.0431 197.389C26.1465 201.159 23.2777 206.989 23.2777 213.169V447.951C23.2777 458.951 32.1946 467.868 43.1942 467.868H488.806C499.805 467.868 508.722 458.951 508.722 447.951V213.31C508.722 207.071 505.798 201.191 500.822 197.427L275.952 27.3107ZM243.684 16.8937C255.537 7.76635 272.032 7.69598 283.962 16.7218L508.832 186.838C517.126 193.112 522 202.911 522 213.31V447.951C522 466.284 507.138 481.146 488.806 481.146H43.1942C24.8616 481.146 10 466.284 10 447.951V213.169C10 202.869 14.7814 193.153 22.9423 186.869L243.684 16.8937Z" fill="black"/>
<path fill-rule="evenodd" clip-rule="evenodd" d="M296.12 181.751H224.55C217.217 181.751 211.272 187.695 211.272 195.028V266.598C211.272 273.931 217.217 279.876 224.55 279.876H296.12C303.453 279.876 309.398 273.931 309.398 266.598V195.028C309.398 187.695 303.453 181.751 296.12 181.751ZM224.55 168.473C209.884 168.473 197.995 180.362 197.995 195.028V266.598C197.995 281.264 209.884 293.154 224.55 293.154H296.12C310.786 293.154 322.675 281.264 322.675 266.598V195.028C322.675 180.362 310.786 168.473 296.12 168.473H224.55Z" fill="black"/>
<path fill-rule="evenodd" clip-rule="evenodd" d="M239.443 295.097H167.873C160.54 295.097 154.596 301.042 154.596 308.375V379.945C154.596 387.278 160.54 393.222 167.873 393.222H239.443C246.776 393.222 252.721 387.278 252.721 379.945V308.375C252.721 301.042 246.776 295.097 239.443 295.097ZM167.873 281.82C153.207 281.82 141.318 293.709 141.318 308.375V379.945C141.318 394.611 153.207 406.5 167.873 406.5H239.443C254.109 406.5 265.998 394.611 265.998 379.945V308.375C265.998 293.709 254.109 281.82 239.443 281.82H167.873Z" fill="black"/>
<path fill-rule="evenodd" clip-rule="evenodd" d="M352.79 295.097H281.22C273.887 295.097 267.942 301.042 267.942 308.375V379.945C267.942 387.278 273.887 393.222 281.22 393.222H352.79C360.123 393.222 366.067 387.278 366.067 379.945V308.375C366.067 301.042 360.123 295.097 352.79 295.097ZM281.22 281.82C266.554 281.82 254.665 293.709 254.665 308.375V379.945C254.665 394.611 266.554 406.5 281.22 406.5H352.79C367.456 406.5 379.345 394.611 379.345 379.945V308.375C379.345 293.709 367.456 281.82 352.79 281.82H281.22Z" fill="black"/>
<path d="M255.788 202.476H264.577L288.672 259.149H280.976L274.985 244.951H245.686L239.739 259.149H231.999L255.788 202.476ZM272.886 239.406L260.204 208.257L247.742 239.406H272.886Z" fill="black"/>
<path d="M218.984 342.212C223.393 342.868 226.663 344.362 228.795 346.696C230.928 349.029 231.994 352.241 231.994 356.331C231.994 360.054 231.245 363.109 229.746 365.495C228.277 367.855 225.986 369.611 222.874 370.765C219.762 371.919 215.728 372.496 210.772 372.496H186.655V315.823H208.222C213.553 315.823 217.702 316.268 220.67 317.16C223.638 318.025 225.756 319.48 227.023 321.525C228.291 323.57 228.925 326.428 228.925 330.099C228.925 333.612 228.147 336.313 226.591 338.201C225.064 340.062 222.528 341.399 218.984 342.212ZM194.003 339.735H209.649C212.645 339.735 215.051 339.42 216.866 338.791C218.682 338.135 219.993 337.099 220.8 335.684C221.635 334.268 222.053 332.393 222.053 330.06C222.053 327.883 221.621 326.192 220.756 324.986C219.921 323.78 218.509 322.915 216.521 322.39C214.561 321.866 211.81 321.604 208.266 321.604H194.003V339.735ZM210.729 366.753C214.244 366.753 216.967 366.439 218.898 365.81C220.828 365.154 222.211 364.092 223.047 362.624C223.883 361.129 224.3 359.045 224.3 356.371C224.3 353.696 223.811 351.559 222.831 349.96C221.851 348.334 220.295 347.155 218.163 346.42C216.031 345.686 213.193 345.319 209.649 345.319H194.003V366.753H210.729Z" fill="black"/>
<path d="M324.54 372.496C318.572 372.496 313.798 371.549 310.217 369.656C306.672 367.728 304.074 364.693 302.424 360.55C300.809 356.408 300.002 350.89 300.002 343.998C300.002 337.178 300.827 331.714 302.477 327.607C304.127 323.5 306.724 320.518 310.27 318.662C313.851 316.769 318.625 315.823 324.593 315.823C331.544 315.823 336.704 317.287 340.074 320.215C343.48 323.108 345.235 327.589 345.34 333.66H337.073C336.862 330.946 336.301 328.786 335.388 327.179C334.51 325.572 333.176 324.393 331.386 323.643C329.595 322.893 327.261 322.518 324.382 322.518C320.205 322.518 316.958 323.179 314.641 324.5C312.359 325.822 310.709 328.036 309.691 331.142C308.708 334.214 308.216 338.535 308.216 344.105C308.216 350.141 308.673 354.694 309.585 357.765C310.498 360.836 312.113 362.996 314.43 364.246C316.747 365.46 320.152 366.068 324.646 366.068C327.594 366.068 329.964 365.693 331.754 364.943C333.545 364.157 334.861 362.943 335.704 361.3C336.546 359.622 337.003 357.408 337.073 354.658H345.34C345.305 358.979 344.585 362.443 343.181 365.05C341.777 367.621 339.565 369.514 336.546 370.728C333.527 371.906 329.525 372.496 324.54 372.496Z" fill="black"/>
</svg>
