<svg width="510" height="512" viewBox="0 0 510 512" fill="none" xmlns="http://www.w3.org/2000/svg">
<path fill-rule="evenodd" clip-rule="evenodd" d="M105.403 249.812C98.9017 250.595 93.6138 255.439 92.2418 261.869L89.1784 276.224C87.7018 283.144 91.1139 290.183 97.4482 293.284L261.008 373.37C266.887 376.249 273.939 375.064 278.564 370.419L286.143 362.809L133.26 250.62C130.127 248.321 126.243 247.301 122.39 247.765L105.403 249.812ZM293.455 355.466L139.289 242.335C134.068 238.503 127.594 236.803 121.173 237.577L104.186 239.624C93.3498 240.929 84.5367 249.003 82.25 259.719L79.1866 274.074C76.7256 285.607 82.4125 297.339 92.9696 302.508L256.529 382.593C266.329 387.392 278.081 385.416 285.79 377.675L313.375 349.974L306.149 342.718L293.455 355.466Z" fill="black"/>
<path fill-rule="evenodd" clip-rule="evenodd" d="M138.049 196.304C140.449 187.539 147.289 180.704 156.03 178.337L184.522 170.62C194.626 167.884 205.37 171.612 211.635 180.028L324.903 332.176L316.719 338.32L203.451 186.172C199.692 181.122 193.245 178.886 187.183 180.527L158.691 188.244C153.446 189.664 149.342 193.765 147.902 199.024L136.277 241.482L126.424 238.761L138.049 196.304Z" fill="black"/>
<path fill-rule="evenodd" clip-rule="evenodd" d="M198.965 142.953C201.324 131.902 210.607 123.702 221.823 122.764L230.817 122.011C241.227 121.14 251.116 126.721 255.788 136.103L337.743 300.698C342.66 310.574 340.733 322.502 332.957 330.31L310.218 353.145L302.992 345.889L325.731 323.054C330.397 318.369 331.553 311.213 328.603 305.287L246.648 140.692C243.845 135.063 237.912 131.714 231.666 132.237L222.672 132.99C215.942 133.553 210.372 138.472 208.957 145.103L202.661 174.608L192.669 172.458L198.965 142.953Z" fill="black"/>
<path fill-rule="evenodd" clip-rule="evenodd" d="M289.569 409.428L266.095 385.856L273.321 378.6L296.795 402.172C313.547 418.994 340.707 418.994 357.459 402.172C374.211 385.35 374.211 358.076 357.459 341.254L333.985 317.682L341.211 310.426L364.685 333.998C385.427 354.827 385.427 388.599 364.685 409.428C343.942 430.257 310.312 430.257 289.569 409.428Z" fill="black"/>
</svg>
