<svg width="512" height="512" viewBox="0 0 512 512" fill="none" xmlns="http://www.w3.org/2000/svg">
<path fill-rule="evenodd" clip-rule="evenodd" d="M81.3604 112.64C81.3604 104.723 87.7788 98.3041 95.6964 98.3041H421.258C429.175 98.3041 435.594 104.723 435.594 112.64V300.491C435.594 308.409 429.175 314.827 421.258 314.827H95.6964C87.7788 314.827 81.3604 308.409 81.3604 300.491V112.64ZM95.6964 106.496C92.3031 106.496 89.5524 109.247 89.5524 112.64V181.419C116.67 179.422 139.355 166.436 156.954 150.466C172.917 135.98 184.503 119.205 191.18 106.496H95.6964ZM200.353 106.496C193.656 120.374 180.808 139.881 162.459 156.532C143.822 173.444 119.272 187.615 89.5524 189.631V300.491C89.5524 303.884 92.3031 306.635 95.6964 306.635H421.258C424.651 306.635 427.402 303.884 427.402 300.491V112.64C427.402 109.247 424.651 106.496 421.258 106.496H200.353Z" fill="black"/>
<path fill-rule="evenodd" clip-rule="evenodd" d="M359.484 149.123C340.843 132.74 328.142 113.358 322.212 100.666L314.79 104.134C321.158 117.762 334.515 138.084 354.076 155.277C373.665 172.493 399.715 186.77 431.372 187.708L431.615 179.52C402.395 178.653 378.098 165.483 359.484 149.123Z" fill="black"/>
<path fill-rule="evenodd" clip-rule="evenodd" d="M329.098 124.151L184.325 124.151V115.959L329.098 115.959V124.151Z" fill="black"/>
<path fill-rule="evenodd" clip-rule="evenodd" d="M131.484 168.859C188.881 170.64 218.813 135.522 226.488 118.381L233.965 121.729C225.162 141.387 192.476 178.947 131.23 177.047L131.484 168.859Z" fill="black"/>
<path fill-rule="evenodd" clip-rule="evenodd" d="M389 168.859C329.399 170.644 298.37 135.434 290.438 118.332L283.007 121.778C292.141 141.474 325.966 178.942 389.245 177.047L389 168.859Z" fill="black"/>
<path fill-rule="evenodd" clip-rule="evenodd" d="M113.17 310.21L130.826 172.499L138.951 173.541L121.296 311.251L113.17 310.21Z" fill="black"/>
<path fill-rule="evenodd" clip-rule="evenodd" d="M379.06 310.21L361.405 172.499L353.279 173.541L370.935 311.251L379.06 310.21Z" fill="black"/>
<path fill-rule="evenodd" clip-rule="evenodd" d="M389.122 339.545H145.48V331.353H389.122V339.545Z" fill="black"/>
<path fill-rule="evenodd" clip-rule="evenodd" d="M426.516 347.789C435.471 345.02 442.652 352.594 442.652 360.634V399.361C442.652 407.278 436.233 413.697 428.316 413.697H92.1612C84.2436 413.697 77.8252 407.278 77.8252 399.361V360.51C77.8252 355.451 80.8 349.19 87.4832 348.394C95.86 347.397 107.086 350.281 115.991 363.344C117.565 365.652 118.229 368.326 118.229 370.871V405.505H402.248V372.434L402.272 372.21C403.856 357.91 416.594 350.857 426.516 347.789ZM410.44 405.505H428.316C431.709 405.505 434.46 402.754 434.46 399.361V360.634C434.46 356.742 431.382 354.859 428.936 355.616C419.767 358.451 411.553 363.908 410.44 372.899V405.505ZM110.037 405.505V370.871C110.037 369.715 109.734 368.708 109.222 367.958C102.074 357.472 93.8586 355.885 88.4521 356.529C87.8344 356.602 87.3089 356.91 86.856 357.556C86.3657 358.255 86.0172 359.308 86.0172 360.51V399.361C86.0172 402.754 88.768 405.505 92.1612 405.505H110.037Z" fill="black"/>
<path fill-rule="evenodd" clip-rule="evenodd" d="M363.696 357.2C354.647 357.2 347.312 364.535 347.312 373.584V409.601H339.12V373.584C339.12 360.011 350.123 349.008 363.696 349.008H386.295C399.868 349.008 410.871 360.011 410.871 373.584V375.703H402.679V373.584C402.679 364.535 395.343 357.2 386.295 357.2H363.696Z" fill="black"/>
<path fill-rule="evenodd" clip-rule="evenodd" d="M156.779 353.669C165.828 353.669 173.163 361.004 173.163 370.053V409.601H181.355V370.053C181.355 356.48 170.352 345.477 156.779 345.477H134.606C121.929 345.477 111.332 355.119 110.139 367.74L109.623 373.199L117.779 373.97L118.295 368.511C119.09 360.097 126.155 353.669 134.606 353.669H156.779Z" fill="black"/>
<path fill-rule="evenodd" clip-rule="evenodd" d="M191.15 407.987L222.93 333.836L230.459 337.063L198.68 411.214L191.15 407.987Z" fill="black"/>
<path fill-rule="evenodd" clip-rule="evenodd" d="M332.855 407.987L301.076 333.836L293.547 337.063L325.326 411.214L332.855 407.987Z" fill="black"/>
</svg>
