<svg width="512" height="512" viewBox="0 0 512 512" fill="none" xmlns="http://www.w3.org/2000/svg">
<path d="M424.573 344.365H39.8949C29.1877 344.365 20.4795 335.657 20.4795 324.949V295.849C20.4795 285.142 29.1877 276.434 39.8949 276.434H424.573C435.28 276.434 443.988 285.142 443.988 295.849V324.949C443.988 335.657 435.28 344.365 424.573 344.365ZM39.8949 289.657C36.4828 289.657 33.7141 292.426 33.7141 295.838V324.938C33.7141 328.35 36.4828 331.119 39.8949 331.119H424.573C427.985 331.119 430.753 328.35 430.753 324.938V295.838C430.753 292.426 427.985 289.657 424.573 289.657H39.8949Z" fill="black"/>
<path d="M409.879 253.618H54.5886C35.7821 253.618 20.4795 238.316 20.4795 219.509V156.989C20.4795 138.183 35.7821 122.88 54.5886 122.88H409.879C428.686 122.88 443.988 138.183 443.988 156.989V219.509C443.988 238.316 428.686 253.618 409.879 253.618ZM54.5886 136.115C43.0772 136.115 33.7141 145.478 33.7141 156.989V219.509C33.7141 231.02 43.0772 240.383 54.5886 240.383H409.879C421.39 240.383 430.753 231.02 430.753 219.509V156.989C430.753 145.478 421.39 136.115 409.879 136.115H54.5886Z" fill="black"/>
<path d="M116.921 430.08H82.8468C79.1935 430.08 76.2295 427.116 76.2295 423.463V337.748C76.2295 334.095 79.1935 331.131 82.8468 331.131H116.921C120.575 331.131 123.539 334.095 123.539 337.748V423.463C123.539 427.116 120.575 430.08 116.921 430.08V430.08ZM89.4641 416.846H110.304V344.365H89.4641V416.846Z" fill="black"/>
<path d="M381.623 430.081H347.548C343.895 430.081 340.931 427.117 340.931 423.464V337.749C340.931 334.095 343.895 331.131 347.548 331.131H381.623C385.276 331.131 388.24 334.095 388.24 337.749V423.464C388.24 427.117 385.276 430.081 381.623 430.081ZM354.165 416.846H375.005V344.366H354.165V416.846Z" fill="black"/>
<path d="M143.712 289.657H109.638C105.985 289.657 103.021 286.693 103.021 283.04V247C103.021 243.347 105.985 240.383 109.638 240.383H143.712C147.366 240.383 150.33 243.347 150.33 247V283.04C150.33 286.693 147.377 289.657 143.712 289.657ZM116.267 276.422H137.107V253.618H116.267V276.422Z" fill="black"/>
<path d="M354.833 289.657H320.758C317.105 289.657 314.141 286.693 314.141 283.04V247C314.141 243.347 317.105 240.383 320.758 240.383H354.833C358.486 240.383 361.45 243.347 361.45 247V283.04C361.45 286.693 358.497 289.657 354.833 289.657ZM327.375 276.422H348.215V253.618H327.375V276.422Z" fill="black"/>
</svg>
