<svg width="512" height="512" viewBox="0 0 512 512" fill="none" xmlns="http://www.w3.org/2000/svg">
<path fill-rule="evenodd" clip-rule="evenodd" d="M359.237 237.387C275.234 211.305 195.848 225.107 160.495 237.22C158.292 237.975 156.757 240.128 156.757 242.688V312.615H148.565V242.688C148.565 236.86 152.109 231.434 157.84 229.47C194.442 216.929 275.646 202.855 361.666 229.564C367.629 231.415 371.562 236.963 371.562 243.104V312.615H363.37V243.104C363.37 240.448 361.676 238.144 359.237 237.387Z" fill="black"/>
<path fill-rule="evenodd" clip-rule="evenodd" d="M367.462 344.347H152.658C145.806 344.347 140.252 349.901 140.252 356.753C140.252 363.604 145.806 369.158 152.658 369.158H367.462C374.314 369.158 379.868 363.604 379.868 356.753C379.868 349.901 374.314 344.347 367.462 344.347ZM152.658 336.155C141.282 336.155 132.06 345.377 132.06 356.753C132.06 368.129 141.282 377.35 152.658 377.35H367.462C378.838 377.35 388.06 368.129 388.06 356.753C388.06 345.377 378.838 336.155 367.462 336.155H152.658Z" fill="black"/>
<path fill-rule="evenodd" clip-rule="evenodd" d="M192.137 312.297C169.493 312.297 148.793 325.09 138.667 345.343L131.34 341.68C142.854 318.651 166.39 304.105 192.137 304.105H327.985C353.731 304.105 377.268 318.651 388.782 341.68L381.455 345.343C371.328 325.09 350.628 312.297 327.985 312.297H192.137Z" fill="black"/>
<path fill-rule="evenodd" clip-rule="evenodd" d="M243.875 300.208H193.852C193.501 300.208 193.217 300.493 193.217 300.844C193.217 301.195 193.501 301.479 193.852 301.479H243.875C244.227 301.479 244.511 301.195 244.511 300.844C244.511 300.493 244.227 300.208 243.875 300.208ZM193.852 292.016C188.977 292.016 185.025 295.968 185.025 300.844C185.025 305.719 188.977 309.671 193.852 309.671H243.875C248.751 309.671 252.703 305.719 252.703 300.844C252.703 295.968 248.751 292.016 243.875 292.016H193.852Z" fill="black"/>
<path fill-rule="evenodd" clip-rule="evenodd" d="M329.21 300.208H279.187C278.836 300.208 278.552 300.493 278.552 300.844C278.552 301.195 278.836 301.479 279.187 301.479H329.21C329.561 301.479 329.846 301.195 329.846 300.844C329.846 300.493 329.561 300.208 329.21 300.208ZM279.187 292.016C274.312 292.016 270.36 295.968 270.36 300.844C270.36 305.719 274.312 309.671 279.187 309.671H329.21C334.086 309.671 338.038 305.719 338.038 300.844C338.038 295.968 334.086 292.016 329.21 292.016H279.187Z" fill="black"/>
<path fill-rule="evenodd" clip-rule="evenodd" d="M151.505 383.235V377.35H159.697V383.235C159.697 384.223 160.498 385.024 161.486 385.024C162.474 385.024 163.275 384.223 163.275 383.235V377.35H171.467V383.235C171.467 388.747 166.998 393.216 161.486 393.216C155.974 393.216 151.505 388.747 151.505 383.235Z" fill="black"/>
<path fill-rule="evenodd" clip-rule="evenodd" d="M348.655 383.235V377.35H356.847V383.235C356.847 384.223 357.648 385.024 358.636 385.024C359.624 385.024 360.425 384.223 360.425 383.235V377.35H368.617V383.235C368.617 388.747 364.148 393.216 358.636 393.216C353.123 393.216 348.655 388.747 348.655 383.235Z" fill="black"/>
<path fill-rule="evenodd" clip-rule="evenodd" d="M318.969 141.312H201.15C200.019 141.312 199.102 142.229 199.102 143.36V169.96C199.102 171.092 200.019 172.008 201.15 172.008H318.969C320.1 172.008 321.017 171.092 321.017 169.96V143.36C321.017 142.229 320.1 141.312 318.969 141.312ZM201.15 133.12C195.495 133.12 190.91 137.705 190.91 143.36V169.96C190.91 175.616 195.495 180.2 201.15 180.2H318.969C324.624 180.2 329.209 175.616 329.209 169.96V143.36C329.209 137.705 324.624 133.12 318.969 133.12H201.15Z" fill="black"/>
<path fill-rule="evenodd" clip-rule="evenodd" d="M211.511 175.468C210.523 175.468 209.722 176.269 209.722 177.257H201.53C201.53 171.745 205.998 167.276 211.511 167.276H308.614C314.127 167.276 318.595 171.745 318.595 177.257H310.403C310.403 176.269 309.602 175.468 308.614 175.468H211.511Z" fill="black"/>
<path fill-rule="evenodd" clip-rule="evenodd" d="M423.052 274.361V389.12H414.86V274.361H423.052Z" fill="black"/>
<path fill-rule="evenodd" clip-rule="evenodd" d="M401.235 242.751C402.875 236.428 408.581 232.012 415.112 232.012H422.805C429.337 232.012 435.043 236.428 436.682 242.751L441.672 261.995C444.025 271.073 437.173 279.929 427.794 279.929H410.123C400.745 279.929 393.893 271.073 396.246 261.995L401.235 242.751ZM415.112 240.204C412.313 240.204 409.868 242.097 409.165 244.807L404.176 264.051C403.167 267.941 406.104 271.737 410.123 271.737H427.794C431.814 271.737 434.751 267.941 433.742 264.051L428.753 244.807C428.05 242.097 425.605 240.204 422.805 240.204H415.112Z" fill="black"/>
<path fill-rule="evenodd" clip-rule="evenodd" d="M430.73 393.216H407.19V385.024H430.73V393.216Z" fill="black"/>
<path fill-rule="evenodd" clip-rule="evenodd" d="M57.3452 319.912C57.3452 311.995 63.7637 305.576 71.6812 305.576H101.224C109.142 305.576 115.56 311.995 115.56 319.912V378.881C115.56 386.798 109.142 393.217 101.224 393.217H71.6812C63.7637 393.217 57.3452 386.798 57.3452 378.881V319.912ZM71.6812 313.768C68.288 313.768 65.5372 316.519 65.5372 319.912V324.703H107.368V319.912C107.368 316.519 104.617 313.768 101.224 313.768H71.6812ZM107.368 332.895H65.5372V378.881C65.5372 382.274 68.288 385.025 71.6812 385.025H101.224C104.617 385.025 107.368 382.274 107.368 378.881V332.895Z" fill="black"/>
<path d="M87.9225 319.97C87.9225 320.783 87.2638 321.441 86.4512 321.441C85.6387 321.441 84.98 320.783 84.98 319.97C84.98 319.157 85.6387 318.499 86.4512 318.499C87.2638 318.499 87.9225 319.157 87.9225 319.97Z" fill="black"/>
<path fill-rule="evenodd" clip-rule="evenodd" d="M86.4539 295.595C89.1373 295.595 94.4458 291.991 94.4458 283.189C94.4458 274.387 89.1373 270.783 86.4539 270.783C83.7705 270.783 78.462 274.387 78.462 283.189C78.462 291.991 83.7705 295.595 86.4539 295.595ZM86.4539 303.787C95.3921 303.787 102.638 294.565 102.638 283.189C102.638 271.813 95.3921 262.591 86.4539 262.591C77.5158 262.591 70.27 271.813 70.27 283.189C70.27 294.565 77.5158 303.787 86.4539 303.787Z" fill="black"/>
</svg>
