<svg width="512" height="512" viewBox="0 0 512 512" fill="none" xmlns="http://www.w3.org/2000/svg">
<path fill-rule="evenodd" clip-rule="evenodd" d="M319.189 238.191H202.32V227.951H319.189V238.191Z" fill="black"/>
<path fill-rule="evenodd" clip-rule="evenodd" d="M319.189 283.826H202.32V273.586H319.189V283.826Z" fill="black"/>
<path fill-rule="evenodd" clip-rule="evenodd" d="M193.195 343.263V158.497C193.195 144.482 181.833 133.12 167.818 133.12C153.802 133.12 142.44 144.482 142.44 158.497V343.263C142.44 357.278 153.802 368.64 167.818 368.64C181.833 368.64 193.195 357.278 193.195 343.263ZM167.818 122.88C148.147 122.88 132.2 138.826 132.2 158.497V343.263C132.2 362.933 148.147 378.88 167.818 378.88C187.489 378.88 203.435 362.934 203.435 343.263V158.497C203.435 138.826 187.489 122.88 167.818 122.88Z" fill="black"/>
<path fill-rule="evenodd" clip-rule="evenodd" d="M35.8398 247.581C35.8398 233.443 47.3013 221.981 61.4398 221.981H76.6929V232.221H61.4398C52.9567 232.221 46.0798 239.098 46.0798 247.581V257.243C46.0798 265.726 52.9568 272.603 61.4398 272.603H76.6929V282.843H61.4398C47.3014 282.843 35.8398 271.382 35.8398 257.243V247.581Z" fill="black"/>
<path fill-rule="evenodd" clip-rule="evenodd" d="M74.5498 205.528C74.5498 180.079 95.1805 159.448 120.63 159.448H136.247V169.688H120.63C100.836 169.688 84.7898 185.735 84.7898 205.528V296.318C84.7898 316.112 100.836 332.158 120.63 332.158H136.247V342.398H120.63C95.1805 342.398 74.5498 321.767 74.5498 296.318V205.528Z" fill="black"/>
<path fill-rule="evenodd" clip-rule="evenodd" d="M328.13 158.497L328.13 343.263C328.13 357.278 339.492 368.64 353.508 368.64C367.523 368.64 378.885 357.278 378.885 343.263L378.885 158.497C378.885 144.482 367.523 133.12 353.508 133.12C339.492 133.12 328.13 144.482 328.13 158.497ZM353.508 378.88C373.179 378.88 389.125 362.934 389.125 343.263L389.125 158.497C389.125 138.827 373.179 122.88 353.508 122.88C333.837 122.88 317.89 138.826 317.89 158.497L317.89 343.263C317.89 362.934 333.837 378.88 353.508 378.88Z" fill="black"/>
<path fill-rule="evenodd" clip-rule="evenodd" d="M485.485 254.179C485.485 268.317 474.023 279.779 459.885 279.779L444.632 279.779L444.632 269.539L459.885 269.539C468.368 269.539 475.245 262.662 475.245 254.179L475.245 244.517C475.245 236.034 468.368 229.157 459.885 229.157L444.632 229.157L444.632 218.917L459.885 218.917C474.023 218.917 485.485 230.378 485.485 244.517L485.485 254.179Z" fill="black"/>
<path fill-rule="evenodd" clip-rule="evenodd" d="M446.775 296.232C446.775 321.681 426.144 342.312 400.695 342.312L385.078 342.312L385.078 332.072L400.695 332.072C420.489 332.072 436.535 316.025 436.535 296.232L436.535 205.442C436.535 185.648 420.489 169.602 400.695 169.602L385.078 169.602L385.078 159.362L400.695 159.362C426.144 159.362 446.775 179.993 446.775 205.442L446.775 296.232Z" fill="black"/>
</svg>
