<svg width="512" height="512" viewBox="0 0 512 512" fill="none" xmlns="http://www.w3.org/2000/svg">
<path d="M319.495 463.645C313.461 463.631 307.679 461.225 303.418 456.953C299.156 452.682 296.762 446.895 296.762 440.861V366.622L249.895 329.201C240.396 321.584 234.122 310.662 232.327 298.62C230.532 286.577 233.348 274.3 240.213 264.244L269.678 221.186L231.089 217.761L194.682 252.612C190.92 256.042 186.003 257.926 180.912 257.888C175.822 257.85 170.934 255.893 167.223 252.407C165.36 250.564 163.882 248.369 162.875 245.949C161.869 243.529 161.354 240.933 161.36 238.312C161.367 235.692 161.895 233.098 162.914 230.684C163.933 228.269 165.422 226.081 167.295 224.248L210.251 182.469C214.961 177.882 221.274 175.311 227.848 175.301H299.937C306.051 175.325 312.001 177.282 316.935 180.892L340.773 198.684C345.395 202.154 348.787 207.01 350.457 212.543C352.126 218.075 351.986 223.997 350.056 229.444C349.301 231.607 348.269 233.662 346.984 235.558L301.98 301.441L335.556 333.153C337.681 335.158 339.373 337.576 340.529 340.259C341.685 342.942 342.28 345.833 342.279 348.754V351.007C342.279 352.364 341.739 353.667 340.779 354.627C339.819 355.587 338.517 356.126 337.159 356.126C335.801 356.126 334.498 355.587 333.538 354.627C332.578 353.667 332.039 352.364 332.039 351.007V348.754C332.041 347.23 331.732 345.721 331.13 344.321C330.528 342.921 329.645 341.659 328.537 340.613L291.765 305.885C290.879 305.049 290.32 303.924 290.188 302.712C290.057 301.5 290.362 300.282 291.049 299.275L338.505 229.798C339.308 228.626 339.953 227.354 340.425 226.014C341.629 222.631 341.72 218.953 340.686 215.514C339.652 212.076 337.546 209.058 334.675 206.901L310.852 189.12C307.682 186.806 303.862 185.551 299.937 185.536H227.848C223.948 185.541 220.204 187.069 217.414 189.796L174.437 231.6C173.542 232.484 172.832 233.537 172.347 234.698C171.862 235.859 171.612 237.105 171.612 238.363C171.612 239.622 171.862 240.867 172.347 242.028C172.832 243.189 173.542 244.242 174.437 245.127C176.219 246.792 178.562 247.728 181.001 247.747C183.44 247.767 185.797 246.87 187.606 245.234L225.708 208.765C226.236 208.26 226.867 207.874 227.556 207.633C228.246 207.392 228.979 207.301 229.707 207.367L279.319 211.77C280.209 211.85 281.062 212.161 281.795 212.673C282.527 213.184 283.113 213.878 283.494 214.687C283.875 215.495 284.038 216.388 283.966 217.279C283.895 218.169 283.592 219.026 283.087 219.763L248.686 270.04C243.281 277.962 241.063 287.631 242.476 297.116C243.888 306.602 248.826 315.205 256.305 321.209L305.098 360.171C305.698 360.651 306.183 361.259 306.516 361.951C306.849 362.643 307.022 363.402 307.023 364.17V440.861C307.02 444.176 308.331 447.358 310.668 449.709C313.006 452.06 316.18 453.389 319.495 453.405C321.137 453.42 322.766 453.105 324.285 452.48C325.803 451.855 327.181 450.932 328.337 449.765C330.697 447.401 332.027 444.201 332.039 440.861V434.103C332.039 432.745 332.578 431.443 333.538 430.482C334.498 429.522 335.801 428.983 337.159 428.983C338.517 428.983 339.819 429.522 340.779 430.482C341.739 431.443 342.279 432.745 342.279 434.103V440.861C342.267 446.899 339.876 452.688 335.623 456.973C333.517 459.108 331.005 460.798 328.235 461.944C325.465 463.09 322.493 463.668 319.495 463.645V463.645Z" fill="black"/>
<path d="M337.15 413.623C335.792 413.623 334.49 413.083 333.53 412.123C332.57 411.163 332.03 409.861 332.03 408.503V376.606C332.03 375.248 332.57 373.945 333.53 372.985C334.49 372.025 335.792 371.486 337.15 371.486C338.508 371.486 339.81 372.025 340.771 372.985C341.731 373.945 342.27 375.248 342.27 376.606V408.503C342.27 409.861 341.731 411.163 340.771 412.123C339.81 413.083 338.508 413.623 337.15 413.623V413.623Z" fill="black"/>
<path d="M418.952 294.867H366.775C364.199 294.863 361.65 294.345 359.276 293.344C356.902 292.342 354.752 290.878 352.952 289.035L323.62 258.889C322.669 257.915 322.144 256.604 322.161 255.244C322.177 253.883 322.733 252.585 323.707 251.634C324.68 250.684 325.992 250.159 327.352 250.175C328.713 250.191 330.011 250.748 330.962 251.721L360.299 281.888C361.143 282.751 362.15 283.437 363.262 283.906C364.374 284.376 365.568 284.619 366.775 284.622H418.952C421.452 284.622 423.85 283.629 425.617 281.861C427.385 280.093 428.378 277.696 428.378 275.196C428.378 272.696 427.385 270.299 425.617 268.531C423.85 266.763 421.452 265.77 418.952 265.77H377.671C376.991 265.769 376.318 265.633 375.691 265.369C375.064 265.106 374.496 264.72 374.02 264.234L341.642 231.359L348.927 224.161L379.816 255.525H418.952C421.535 255.525 424.092 256.034 426.478 257.022C428.864 258.01 431.032 259.459 432.858 261.285C434.684 263.111 436.133 265.279 437.121 267.665C438.109 270.051 438.618 272.608 438.618 275.191C438.618 277.773 438.109 280.331 437.121 282.717C436.133 285.102 434.684 287.27 432.858 289.097C431.032 290.923 428.864 292.371 426.478 293.359C424.092 294.348 421.535 294.856 418.952 294.856V294.867Z" fill="black"/>
<path d="M217.572 387.91H145.678C139.6 387.82 133.803 385.342 129.537 381.013C125.271 376.683 122.88 370.849 122.88 364.771C122.88 358.693 125.271 352.859 129.537 348.529C133.803 344.2 139.6 341.722 145.678 341.632H203.236L234.943 301.461C235.785 300.395 237.015 299.707 238.363 299.548C239.712 299.389 241.068 299.772 242.134 300.613C243.2 301.455 243.888 302.685 244.047 304.033C244.206 305.382 243.823 306.738 242.982 307.804L209.733 349.926C209.254 350.533 208.643 351.023 207.947 351.36C207.251 351.697 206.487 351.872 205.714 351.871H145.678C142.301 351.939 139.085 353.327 136.721 355.739C134.357 358.151 133.033 361.394 133.033 364.771C133.033 368.148 134.357 371.391 136.721 373.803C139.085 376.215 142.301 377.603 145.678 377.671H217.572C219.53 377.677 221.465 377.247 223.236 376.412C225.008 375.577 226.571 374.358 227.811 372.843L261.511 331.842C261.931 331.303 262.455 330.854 263.051 330.52C263.648 330.187 264.305 329.976 264.984 329.901C265.663 329.826 266.351 329.887 267.006 330.081C267.661 330.276 268.27 330.6 268.799 331.033C269.327 331.467 269.763 332.002 270.081 332.607C270.399 333.212 270.592 333.874 270.65 334.555C270.708 335.236 270.629 335.922 270.418 336.572C270.207 337.222 269.868 337.823 269.421 338.339L235.722 379.345C233.522 382.03 230.752 384.192 227.612 385.674C224.473 387.156 221.043 387.92 217.572 387.91V387.91Z" fill="black"/>
<path d="M360.798 183.211C353.087 183.212 345.55 180.927 339.139 176.644C332.727 172.361 327.73 166.273 324.778 159.15C321.827 152.027 321.054 144.188 322.558 136.626C324.062 129.064 327.774 122.117 333.226 116.665C338.677 111.212 345.623 107.499 353.186 105.994C360.748 104.49 368.586 105.262 375.71 108.212C382.833 111.162 388.922 116.159 393.205 122.57C397.489 128.981 399.776 136.518 399.776 144.228C399.765 154.563 395.655 164.471 388.348 171.779C381.04 179.088 371.132 183.199 360.798 183.211V183.211ZM360.798 115.49C355.112 115.489 349.555 117.174 344.827 120.332C340.099 123.49 336.414 127.979 334.238 133.231C332.062 138.484 331.493 144.263 332.601 149.839C333.71 155.416 336.448 160.538 340.468 164.558C344.488 168.578 349.61 171.315 355.186 172.424C360.762 173.533 366.542 172.964 371.795 170.787C377.047 168.611 381.536 164.926 384.694 160.199C387.852 155.471 389.537 149.913 389.536 144.228C389.528 136.609 386.497 129.304 381.11 123.916C375.722 118.528 368.417 115.498 360.798 115.49V115.49Z" fill="black"/>
</svg>
