<svg width="512" height="512" viewBox="0 0 512 512" fill="none" xmlns="http://www.w3.org/2000/svg">
<path d="M173.215 182.513C173.463 183.433 174.214 184.131 175.15 184.311C175.307 184.34 175.467 184.354 175.623 184.354C176.399 184.354 177.134 183.994 177.611 183.365L185.81 172.538L198.359 177.731C199.235 178.091 200.248 177.925 200.959 177.296C201.675 176.667 201.967 175.688 201.72 174.773L194.991 150.001C202.827 148.05 210.423 145.968 217.667 143.795L224.406 168.612C224.653 169.532 225.404 170.226 226.341 170.41C226.497 170.439 226.658 170.454 226.814 170.454C227.584 170.454 228.324 170.094 228.802 169.465L237 158.637L249.549 163.835C250.426 164.195 251.434 164.034 252.149 163.4C252.865 162.771 253.158 161.792 252.91 160.877L245.79 134.646C252.949 132.111 260.22 129.33 267.8 126.236L275.538 154.728C276.078 156.733 278.68 157.227 279.931 155.58L288.13 144.753L300.679 149.95C301.55 150.311 302.568 150.145 303.279 149.516C303.994 148.887 304.287 147.907 304.04 146.993L295.133 114.215C300.002 111.917 304.892 109.552 309.713 107.12C310.945 106.501 311.437 105 310.82 103.774C310.196 102.537 308.695 102.05 307.473 102.667C237.581 137.805 165.691 156.195 96.6711 159.909C95.293 159.981 94.2415 161.155 94.3135 162.531C94.3808 163.861 95.4827 164.893 96.8032 164.893C96.8464 164.893 96.892 164.893 96.9352 164.888C102.649 164.586 108.219 164.115 113.135 163.661L122.026 196.408C122.273 197.328 123.024 198.021 123.961 198.206C124.117 198.235 124.278 198.249 124.434 198.249C125.204 198.249 125.944 197.889 126.422 197.26L134.62 186.433L147.169 191.631C148.041 191.991 149.059 191.825 149.769 191.196C150.485 190.567 150.778 189.588 150.53 188.673L142.805 160.207C150.211 159.172 157.894 157.885 166.104 156.298L173.215 182.513ZM185.935 167.194C184.878 166.764 183.68 167.085 182.994 167.993L176.701 176.307L171.014 155.357C176.737 154.251 182.951 152.901 190.151 151.197L195.579 171.181L185.935 167.194ZM237.127 153.291C236.075 152.861 234.868 153.183 234.186 154.09L227.888 162.404L222.443 142.362C228.462 140.547 234.618 138.543 241.069 136.303L246.764 157.278L237.127 153.291ZM288.254 139.407C287.203 138.977 286 139.299 285.313 140.206L279.016 148.52L272.447 124.346C277.758 122.135 284.321 119.286 290.554 116.393L297.891 143.399L288.254 139.407ZM134.751 181.089C133.695 180.659 132.492 180.981 131.81 181.889L125.511 190.202L118.169 163.167C124.558 162.555 131.049 161.806 137.82 160.884L144.386 185.079L134.751 181.089Z" fill="black"/>
<path d="M399.353 156.589C398.729 155.353 397.229 154.87 396.007 155.482C352.723 177.226 309.379 190.143 269.141 195.465C267.772 195.65 266.812 196.903 266.992 198.267C267.162 199.523 268.228 200.435 269.462 200.435C269.575 200.435 269.681 200.43 269.794 200.416C275.906 199.602 282.263 198.533 289.007 197.244L294.243 216.52C294.491 217.439 295.242 218.138 296.178 218.318C296.334 218.347 296.495 218.361 296.651 218.361C297.422 218.361 298.161 218.001 298.639 217.372L304.552 209.565L313.599 213.31C314.47 213.67 315.488 213.509 316.199 212.876C316.914 212.247 317.207 211.267 316.96 210.352L312.038 192.229C317.522 190.853 322.861 189.394 327.994 187.864L332.923 206.017C333.17 206.936 333.921 207.63 334.851 207.815C335.011 207.844 335.172 207.858 335.328 207.858C336.099 207.858 336.838 207.498 337.316 206.869L343.229 199.062L352.276 202.807C353.147 203.167 354.165 203.001 354.876 202.372C355.591 201.743 355.884 200.764 355.637 199.849L350.401 180.568C355.449 178.775 360.578 176.811 365.893 174.653L371.561 195.523C371.808 196.442 372.56 197.136 373.496 197.321C373.652 197.35 373.813 197.364 373.969 197.364C374.74 197.364 375.479 197.004 375.957 196.375L381.865 188.573L390.912 192.318C391.788 192.683 392.801 192.517 393.512 191.883C394.227 191.254 394.52 190.275 394.273 189.36L387.682 165.079C391.212 163.405 394.758 161.698 398.253 159.934C399.48 159.319 399.972 157.819 399.353 156.589L399.353 156.589ZM304.68 204.221C303.629 203.791 302.421 204.113 301.739 205.02L297.73 210.316L293.927 196.32C297.922 195.537 302.255 194.591 307.196 193.429L310.817 206.761L304.68 204.221ZM343.362 193.717C342.31 193.287 341.108 193.609 340.421 194.517L336.407 199.813L332.774 186.433C336.933 185.17 341.213 183.775 345.686 182.229L349.496 196.257L343.362 193.717ZM381.995 183.231C380.939 182.806 379.741 183.123 379.054 184.03L375.045 189.319L370.548 172.768C375.242 170.804 380.862 168.288 383.102 167.253L388.129 185.768L381.995 183.231Z" fill="black"/>
<path d="M327.654 331.959C334.153 331.959 339.437 326.675 339.437 320.176V317.927C339.437 311.428 334.153 306.144 327.654 306.144H305.413V292.925C316.519 291.667 325.21 282.323 325.21 270.886C325.21 266.72 324.04 262.048 321.92 257.725C321.409 256.692 320.274 256.116 319.128 256.395C316.363 257.019 313.551 257.449 310.706 257.739C310.975 255.576 311.266 253.415 311.511 251.252C317.268 249.713 323.066 247.944 328.765 245.992C330.066 245.548 330.763 244.131 330.314 242.825C329.869 241.524 328.448 240.818 327.147 241.277C321.02 243.37 314.778 245.252 308.593 246.858C307.595 247.123 306.855 247.975 306.742 249.002C306.413 252.006 306.024 255.012 305.648 258.017C299.451 258.219 293.118 257.739 286.669 256.387C285.567 256.174 284.429 256.709 283.918 257.727C281.803 262.039 280.639 266.713 280.639 270.888C280.639 282.323 289.325 291.667 300.426 292.927V306.146L265.319 306.141C265.686 305.279 265.893 304.333 265.893 303.339V265.208C265.893 259.758 262.059 255.182 256.945 254.039V218.553C256.945 217.175 255.828 216.059 254.45 216.059H242.609C241.231 216.059 240.115 217.175 240.115 218.553V254.039C235.001 255.184 231.167 259.758 231.167 265.208V303.339C231.167 304.333 231.374 305.279 231.741 306.141H194.798V292.922C205.904 291.664 214.595 282.32 214.595 270.883C214.595 266.718 213.426 262.046 211.306 257.722C210.794 256.69 209.659 256.114 208.513 256.392C198.192 258.721 187.267 258.73 176.053 256.382C174.955 256.169 173.808 256.704 173.301 257.722C171.186 262.034 170.022 266.708 170.022 270.883C170.022 282.318 178.708 291.662 189.809 292.922V306.141H172.818C166.319 306.141 161.035 311.425 161.035 317.924V320.174C161.035 326.673 166.319 331.957 172.818 331.957H236.251V402.439C236.251 403.817 237.368 404.934 238.746 404.934H261.719C263.097 404.934 264.213 403.817 264.213 402.439V331.957L327.654 331.959ZM285.626 270.886C285.626 267.998 286.322 264.778 287.613 261.655C293.505 262.754 299.312 263.174 305.016 263.047C304.459 267.184 303.869 271.306 303.23 275.382C303.017 276.741 303.946 278.018 305.309 278.232C306.716 278.441 307.95 277.48 308.159 276.153C308.848 271.745 309.484 267.284 310.08 262.809C312.826 262.569 315.549 262.214 318.233 261.681C319.525 264.804 320.221 268.014 320.221 270.887C320.221 280.43 312.462 288.19 302.919 288.19C293.387 288.187 285.626 280.425 285.626 270.885L285.626 270.886ZM236.155 265.21C236.155 261.65 239.048 258.757 242.608 258.757C243.986 258.757 245.103 257.641 245.103 256.263V221.048H251.957V256.263C251.957 257.641 253.073 258.757 254.451 258.757C258.012 258.757 260.905 261.65 260.905 265.21V303.342C260.905 304.535 259.93 305.51 258.737 305.51H238.323C237.129 305.51 236.155 304.535 236.155 303.342L236.155 265.21ZM175.012 270.886C175.012 267.998 175.708 264.778 177 261.655C187.518 263.618 197.8 263.628 207.619 261.679C208.911 264.802 209.607 268.012 209.607 270.885C209.607 280.428 201.848 288.188 192.305 288.188C182.771 288.188 175.012 280.426 175.012 270.885L175.012 270.886ZM166.026 320.176V317.927C166.026 314.181 169.075 311.132 172.82 311.132H327.657C331.402 311.132 334.451 314.181 334.451 317.927V320.176C334.451 323.922 331.402 326.971 327.657 326.971H172.82C169.075 326.971 166.026 323.922 166.026 320.176V320.176ZM259.23 399.952H241.246V331.958H259.23V399.952Z" fill="black"/>
<path d="M243.877 284.322H253.19C254.568 284.322 255.684 283.205 255.684 281.827C255.684 280.449 254.568 279.333 253.19 279.333H243.877C242.499 279.333 241.383 280.449 241.383 281.827C241.383 283.205 242.499 284.322 243.877 284.322Z" fill="black"/>
<path d="M402.769 254.717C400.275 254.585 397.992 255.408 396.165 257.036C380.917 270.684 381.448 308.172 389.68 337.93H334.088C329.051 337.93 324.955 342.025 324.955 347.062C324.955 352.094 329.051 356.19 334.088 356.19H339.132L325.396 397.599C324.631 399.894 324.813 402.357 325.908 404.53C327.01 406.722 328.899 408.354 331.228 409.118C332.198 409.439 333.156 409.6 334.092 409.6C338.013 409.6 341.491 407.082 342.742 403.332L358.328 356.188H375.839L391.425 403.337C392.675 407.082 396.173 409.6 400.125 409.6C400.987 409.6 401.937 409.444 402.994 409.118C405.294 408.347 407.164 406.731 408.259 404.554C409.361 402.367 409.541 399.896 408.775 397.603L395.076 356.189H402.257C405.258 356.189 408.069 354.713 409.783 352.233C411.483 349.763 411.858 346.613 410.787 343.806C398.564 311.749 400.884 277.319 408.357 270.632C412.098 267.271 412.415 261.485 409.063 257.737C407.436 255.925 405.205 254.847 402.768 254.715L402.769 254.717ZM338.009 401.76C337.312 403.844 335.296 405.215 332.792 404.387C331.731 404.036 330.869 403.289 330.367 402.293C329.87 401.314 329.788 400.209 330.134 399.174L344.387 356.19H353.076L338.009 401.76ZM404.041 399.179C404.387 400.212 404.301 401.323 403.804 402.312C403.307 403.306 402.459 404.041 401.47 404.372C400.949 404.533 400.486 404.615 400.126 404.615C398.323 404.615 396.731 403.465 396.16 401.765L381.092 356.191H389.824L404.041 399.179ZM405.031 266.917C394.153 276.65 394.7 315.614 406.133 345.586C406.62 346.858 406.45 348.289 405.679 349.406C404.899 350.532 403.624 351.204 402.26 351.204H334.089C331.803 351.204 329.942 349.348 329.942 347.062C329.942 344.777 331.803 342.916 334.089 342.916H396.36L395.39 339.702C386.613 310.558 385.751 273.054 399.5 260.744C400.324 260.009 401.423 259.642 402.496 259.692C403.603 259.755 404.611 260.242 405.346 261.061C406.871 262.765 406.729 265.396 405.034 266.916L405.031 266.917Z" fill="black"/>
<path d="M92.7611 343.803C91.6904 346.614 92.0649 349.764 93.7694 352.24C95.4788 354.715 98.2901 356.191 101.291 356.191H108.472L94.7731 397.603C93.2198 402.27 95.6758 407.494 100.609 409.139C105.824 410.759 110.633 407.804 112.126 403.336L127.711 356.192H145.223L160.808 403.341C162.371 408.015 167.401 410.762 172.318 409.122C177.122 407.547 179.744 402.366 178.154 397.606L164.419 356.192H169.463C174.5 356.192 178.596 352.096 178.596 347.064C178.596 342.027 174.5 337.931 169.463 337.931H113.866C122.098 308.169 122.629 270.682 107.376 257.038C105.559 255.405 103.177 254.577 100.777 254.718C98.3422 254.851 96.1095 255.926 94.4843 257.743C91.1328 261.489 91.4497 267.277 95.1949 270.643C102.664 277.324 104.981 311.754 92.7606 343.805L92.7611 343.803ZM107.389 401.761C106.722 403.758 104.573 405.148 102.134 404.387C99.9828 403.674 98.7968 401.314 99.5075 399.175L113.725 356.191H122.457L107.389 401.761ZM173.416 399.18C174.136 401.319 172.933 403.669 170.751 404.387C168.261 405.211 166.23 403.842 165.539 401.765L150.471 356.192H159.162L173.416 399.18ZM98.2009 261.06C98.9356 260.242 99.9439 259.754 101.051 259.692C101.127 259.687 101.207 259.687 101.284 259.687C102.306 259.687 103.281 260.057 104.049 260.748C117.796 273.053 116.934 310.555 108.155 339.7L107.185 342.915H169.456C171.742 342.915 173.602 344.775 173.602 347.061C173.602 349.346 171.742 351.202 169.456 351.202L101.285 351.2C99.9209 351.2 98.6437 350.528 97.8706 349.406C97.0952 348.285 96.9247 346.854 97.4121 345.577C108.845 315.61 109.389 276.643 98.5188 266.92C96.8191 265.398 96.6774 262.767 98.2019 261.063L98.2009 261.06Z" fill="black"/>
</svg>
