<svg width="512" height="512" viewBox="0 0 512 512" fill="none" xmlns="http://www.w3.org/2000/svg">
<path fill-rule="evenodd" clip-rule="evenodd" d="M509.44 414.72L10.2402 414.72L10.2402 404.48L509.44 404.48L509.44 414.72Z" fill="black"/>
<path fill-rule="evenodd" clip-rule="evenodd" d="M106.665 231.254C86.8711 231.254 70.825 247.3 70.825 267.094V409.6H60.585V267.094C60.585 241.644 81.2157 221.014 106.665 221.014H404.478C429.928 221.014 450.558 241.645 450.558 267.094V409.6H440.318V267.094C440.318 247.3 424.272 231.254 404.478 231.254H106.665Z" fill="black"/>
<path fill-rule="evenodd" clip-rule="evenodd" d="M445.44 269.654H67.8398V259.414H445.44V269.654Z" fill="black"/>
<path fill-rule="evenodd" clip-rule="evenodd" d="M352.425 200.534L352.425 226.134L342.185 226.134L342.185 200.534L352.425 200.534Z" fill="black"/>
<path fill-rule="evenodd" clip-rule="evenodd" d="M396.802 142.506L297.815 142.506V190.293L396.802 190.293L396.802 142.506ZM297.815 132.266C292.16 132.266 287.575 136.851 287.575 142.506V190.293C287.575 195.948 292.16 200.533 297.815 200.533H396.802C402.457 200.533 407.042 195.948 407.042 190.293V142.506C407.042 136.851 402.457 132.266 396.802 132.266H297.815Z" fill="black"/>
<path fill-rule="evenodd" clip-rule="evenodd" d="M99.1959 186.246L111.996 199.046L104.755 206.287L91.9551 193.487L99.1959 186.246Z" fill="black"/>
<path fill-rule="evenodd" clip-rule="evenodd" d="M113.495 187.734V202.667H103.255V187.734H113.495Z" fill="black"/>
<path fill-rule="evenodd" clip-rule="evenodd" d="M124.796 193.487L111.996 206.287L104.755 199.046L117.555 186.246L124.796 193.487Z" fill="black"/>
<path fill-rule="evenodd" clip-rule="evenodd" d="M90.4551 197.546H126.295V226.133H116.055V207.786H100.695V226.133H90.4551V197.546Z" fill="black"/>
<path fill-rule="evenodd" clip-rule="evenodd" d="M200.105 143.36C208.588 143.36 215.465 136.483 215.465 128C215.465 119.517 208.588 112.64 200.105 112.64C191.622 112.64 184.745 119.517 184.745 128C184.745 136.483 191.622 143.36 200.105 143.36ZM200.105 153.6C214.243 153.6 225.705 142.139 225.705 128C225.705 113.862 214.243 102.4 200.105 102.4C185.966 102.4 174.505 113.862 174.505 128C174.505 142.139 185.966 153.6 200.105 153.6Z" fill="black"/>
<path fill-rule="evenodd" clip-rule="evenodd" d="M202.238 169.386C186.215 169.386 173.225 182.376 173.225 198.4V226.133H162.985V198.4C162.985 176.721 180.559 159.146 202.238 159.146C223.917 159.146 241.492 176.721 241.492 198.4V226.133H231.252V198.4C231.252 182.376 218.262 169.386 202.238 169.386Z" fill="black"/>
</svg>
