<svg width="512" height="512" viewBox="0 0 512 512" fill="none" xmlns="http://www.w3.org/2000/svg">
<path d="M433.93 121.381L417.466 104.973C411.082 98.533 402.514 95.005 393.442 95.005C384.37 95.005 375.858 98.533 369.418 104.973L335.706 138.741C333.802 140.645 334.194 143.893 336.546 145.293L345.338 150.557L333.242 164.277C328.65 162.261 323.666 161.085 318.458 160.861L201.922 160.021C190.89 160.021 181.931 168.981 181.931 180.013C181.931 190.989 190.89 199.949 201.866 199.949L260.946 200.397L217.546 243.741C209.986 251.301 205.842 261.381 205.842 272.077C205.842 274.765 206.234 277.397 206.85 280.029L196.994 319.341L122.178 356.413C116.186 359.605 113.834 367.109 117.026 373.157L117.363 373.885L105.267 379.989L100.002 371.085C98.8265 369.069 96.2505 368.397 94.2345 369.573C92.2185 370.749 91.5465 373.325 92.7785 375.341L118.539 419.021C121.507 424.005 126.77 426.805 132.146 426.805C134.89 426.805 137.578 426.133 140.098 424.621C142.058 423.445 142.73 420.869 141.554 418.909C140.378 416.893 137.802 416.221 135.786 417.397C134.162 418.405 132.202 418.685 130.298 418.181C128.394 417.677 126.77 416.445 125.762 414.765L122.402 408.997L132.93 403.733L133.658 405.133C135.226 408.045 137.746 410.229 140.938 411.237C142.17 411.629 143.458 411.853 144.69 411.853C146.65 411.853 148.61 411.349 150.402 410.453C160.482 405.133 164.682 393.037 160.426 382.733L223.986 356.749C224.77 356.469 225.442 355.909 225.89 355.237L249.242 320.573L270.522 334.069C270.522 334.069 260.946 402.165 260.946 402.501L262.122 420.197C262.57 426.413 267.554 431.173 273.658 431.621V444.333L263.298 445.005C261.002 445.173 259.266 447.189 259.378 449.485C259.546 451.725 261.394 453.405 263.578 453.405H263.858L314.482 449.989C323.162 449.429 329.77 441.925 329.21 433.301C329.042 430.949 326.97 429.213 324.73 429.381C322.378 429.493 320.642 431.509 320.81 433.861C321.09 437.837 318.01 441.309 313.922 441.589L307.258 442.037V429.549L311.346 429.269C317.954 428.821 323.218 423.221 322.882 416.557C322.602 410.509 319.97 405.021 315.434 401.045C311.682 397.741 306.922 395.949 301.994 395.725L310.506 323.093C310.618 321.973 310.338 320.853 309.61 319.957L285.082 289.493L345.394 229.237C352.954 221.677 357.098 211.597 357.098 200.901C357.098 196.589 356.426 192.389 355.082 188.469L363.09 180.517C365.33 182.533 367.738 184.101 370.314 184.717C372.61 185.333 374.85 185.613 376.978 185.613C398.426 185.613 411.306 157.781 415.954 145.349C418.194 146.581 420.658 147.309 423.234 147.309C427.266 147.309 431.074 145.741 433.93 142.829C436.786 139.973 438.41 136.165 438.41 132.133C438.41 128.101 436.786 124.293 433.93 121.381V121.381ZM118.091 401.773L109.522 387.213L121.282 381.333L129.067 396.285L118.091 401.773ZM146.482 403.005C145.586 403.453 144.466 403.565 143.458 403.229C142.45 402.893 141.61 402.221 141.106 401.269L124.474 369.293C123.41 367.333 124.138 364.869 126.098 363.861L138.082 357.645L152.25 384.749C155.666 391.357 153.09 399.533 146.482 403.005V403.005ZM219.618 349.469L156.73 375.173L145.642 353.949L202.482 326.061C203.602 325.501 204.386 324.493 204.666 323.317L212.338 292.685C215.53 297.613 219.786 301.925 224.994 305.229L242.13 316.093L219.618 349.469ZM298.858 442.597L282.058 443.773V431.229L298.858 430.109V442.597ZM309.946 407.373C312.634 409.781 314.258 413.029 314.538 416.669C314.65 418.853 312.97 420.701 310.786 420.869L274.834 423.333C272.594 423.389 270.69 421.821 270.522 419.637L269.626 406.141L300.146 404.069C303.674 403.845 307.202 405.021 309.946 407.373ZM301.938 323.877L293.482 396.117L270.074 397.685L279.202 332.613C279.482 330.933 278.698 329.365 277.298 328.469L229.474 298.117C220.066 292.181 214.242 282.157 214.242 272.077C214.242 263.621 217.546 255.669 223.482 249.677L228.746 244.469L275.45 291.173C275.618 291.341 301.938 323.877 301.938 323.877V323.877ZM339.458 223.301L279.426 283.277L234.682 238.533L272.706 200.509L318.402 200.789H318.458C320.754 200.789 322.602 198.941 322.658 196.645C322.658 194.349 320.81 192.445 318.458 192.389L201.922 191.549C195.538 191.549 190.33 186.397 190.33 180.013C190.33 173.573 195.538 168.421 201.866 168.421L318.29 169.261C326.242 169.541 333.746 172.845 339.458 178.501C342.37 181.469 344.666 184.941 346.234 188.637C346.29 188.805 354.298 206.725 339.458 223.301ZM351.386 180.293C349.706 177.549 347.746 174.917 345.394 172.565C343.882 171.109 342.314 169.821 340.634 168.589L349.426 158.621C351.386 163.381 354.13 169.149 357.602 174.133L351.386 180.293ZM372.442 176.597C367.962 175.477 361.858 166.629 357.042 155.093C357.434 154.925 385.882 126.645 385.882 126.645C388.738 123.789 393.386 123.789 396.242 126.645L409.122 139.525C405.93 148.653 392.882 181.861 372.442 176.597ZM427.994 136.893C425.474 139.469 420.994 139.469 418.418 136.893L402.178 120.709C396.074 114.549 386.05 114.549 379.946 120.709L354.466 146.189L345.45 140.813L375.354 110.909C380.17 106.093 386.61 103.405 393.442 103.405C400.274 103.405 406.714 106.093 411.53 110.909L427.994 127.317C429.282 128.605 430.01 130.341 430.01 132.133C430.01 133.925 429.282 135.661 427.994 136.893V136.893Z" fill="black"/>
</svg>
