<svg width="525" height="533" viewBox="0 0 525 533" fill="none" xmlns="http://www.w3.org/2000/svg">
<path fill-rule="evenodd" clip-rule="evenodd" d="M309.058 317.793C357.941 272.589 358.08 188.938 304.126 130.593C250.172 72.2483 166.765 65.8564 117.882 111.06C68.9998 156.265 68.8603 239.916 122.814 298.261C176.769 356.605 260.176 362.997 309.058 317.793ZM319.256 328.821C375.415 276.889 373.578 183.573 315.154 120.395C256.73 57.2163 163.843 48.0997 107.684 100.032C51.5255 151.965 53.3621 245.281 111.786 308.459C170.21 371.637 263.098 380.754 319.256 328.821Z" fill="black"/>
<path fill-rule="evenodd" clip-rule="evenodd" d="M376.124 348.188L350.716 271.965L336.466 276.715L360.967 350.217L341.453 369.731L259.188 345.052L254.872 359.439L339.62 384.863L474.813 520.057C483.613 528.856 497.879 528.856 506.678 520.057L511.403 515.332C520.202 506.533 520.202 492.267 511.403 483.468L376.124 348.188ZM354.213 378.214L485.435 509.436C488.368 512.369 493.123 512.369 496.056 509.436L500.782 504.71C503.715 501.777 503.715 497.022 500.782 494.089L369.56 362.867L354.213 378.214Z" fill="black"/>
<path fill-rule="evenodd" clip-rule="evenodd" d="M277.687 348.9L78.5962 149.81L89.2176 139.188L288.308 338.279L277.687 348.9Z" fill="black"/>
<path fill-rule="evenodd" clip-rule="evenodd" d="M329.621 288.307L139.186 97.8725L149.807 87.2511L340.242 277.686L329.621 288.307Z" fill="black"/>
<path fill-rule="evenodd" clip-rule="evenodd" d="M78.5962 234.405L234.406 78.5947L245.028 89.2161L89.2176 245.026L78.5962 234.405Z" fill="black"/>
<path fill-rule="evenodd" clip-rule="evenodd" d="M113.222 303.654L295.001 121.875L305.622 132.497L123.844 314.275L113.222 303.654Z" fill="black"/>
<path fill-rule="evenodd" clip-rule="evenodd" d="M182.466 338.279L338.277 182.469L348.898 193.09L193.088 348.9L182.466 338.279Z" fill="black"/>
<path fill-rule="evenodd" clip-rule="evenodd" d="M187.78 510.348C212.949 510.348 233.352 489.945 233.352 464.776C233.352 439.607 212.949 419.204 187.78 419.204C162.611 419.204 142.208 439.607 142.208 464.776C142.208 489.945 162.611 510.348 187.78 510.348ZM187.78 525.369C221.244 525.369 248.373 498.241 248.373 464.776C248.373 431.311 221.244 404.183 187.78 404.183C154.315 404.183 127.187 431.311 127.187 464.776C127.187 498.241 154.315 525.369 187.78 525.369Z" fill="black"/>
</svg>
