<svg width="528" height="443" viewBox="0 0 528 443" fill="none" xmlns="http://www.w3.org/2000/svg">
<path d="M391.597 214.244C408.45 214.244 423.697 207.824 435.735 195.786C459.81 171.711 459.81 131.585 435.735 107.51C423.697 95.4725 408.45 89.0525 391.597 89.0525C374.745 89.0525 359.497 95.4725 347.459 107.51C323.384 131.585 323.384 171.711 347.459 195.786C358.694 207.824 374.745 214.244 391.597 214.244ZM358.694 119.548C367.522 110.72 378.757 105.905 391.597 105.905C403.635 105.905 415.672 110.72 424.5 119.548C442.958 138.005 442.958 166.896 424.5 185.353C415.672 194.181 403.635 198.996 391.597 198.996C379.56 198.996 367.522 194.181 358.694 185.353C340.237 166.896 340.237 137.203 358.694 119.548Z" fill="black"/>
<path d="M16.0251 273.63C34.4828 273.63 43.3103 279.248 52.9404 285.668C63.373 292.088 75.4107 300.113 98.6834 300.113C121.956 300.113 133.994 292.088 144.426 285.668C154.859 279.248 162.884 273.63 181.342 273.63C199.799 273.63 208.627 279.248 218.257 285.668C228.69 292.088 240.727 300.113 264 300.113C287.273 300.113 299.31 292.088 309.743 285.668C320.176 279.248 328.201 273.63 346.658 273.63C365.116 273.63 373.944 279.248 383.574 285.668C394.006 292.088 406.044 300.113 429.317 300.113C452.589 300.113 464.627 292.088 475.06 285.668C485.492 279.248 493.517 273.63 511.975 273.63C516.79 273.63 520 270.42 520 265.605C520 260.79 516.79 257.58 511.975 257.58C488.702 257.58 476.665 265.605 466.232 272.025C455.799 278.445 447.774 284.063 429.317 284.063C410.859 284.063 402.031 278.445 392.401 272.025C386.784 268.815 381.166 264.802 373.141 262.395C373.141 261.592 372.339 260.79 371.536 259.987L235.912 123.561L289.68 69.7931C304.125 55.348 304.125 32.8777 289.68 18.4326C283.26 11.21 273.63 8 264 8C254.37 8 245.542 12.0125 238.32 18.4326L156.464 102.696C145.229 113.931 145.229 131.586 156.464 142.821L207.022 193.379L119.549 279.248L118.746 280.05C113.129 281.655 107.511 283.26 98.6834 283.26C80.2257 283.26 71.3981 277.643 61.768 271.223C51.3354 264.803 39.2978 256.777 16.0251 256.777C11.21 256.777 8 259.987 8 264.803C8 269.618 11.21 273.63 16.0251 273.63V273.63ZM223.875 186.959L167.699 130.784C165.292 128.376 164.489 125.166 164.489 121.956C164.489 118.746 166.094 115.536 167.699 113.129L251.16 29.6677C255.172 25.6552 259.987 24.0502 265.605 24.0502C271.223 24.0502 276.038 26.4577 280.05 29.6677C288.075 37.6928 288.075 50.5329 280.05 57.7555L220.665 117.141C217.455 120.351 217.455 125.166 220.665 128.376L349.066 256.777C349.066 256.777 349.066 256.777 348.263 256.777C324.991 256.777 312.953 264.803 302.52 271.223C292.088 277.643 284.063 283.26 265.605 283.26C247.147 283.26 238.32 277.643 228.69 271.223C218.257 264.803 206.219 256.777 182.947 256.777C174.922 256.777 168.502 257.58 162.884 259.185L223.875 198.194C225.48 196.589 226.282 194.984 226.282 192.577C225.48 190.169 224.677 188.564 223.875 186.959V186.959Z" fill="black"/>
<path d="M16.0251 341.04C34.4828 341.04 43.3103 346.658 52.9404 353.078C63.373 359.498 75.4107 367.523 98.6834 367.523C121.956 367.523 133.994 359.498 144.426 353.078C154.859 346.658 162.884 341.04 181.342 341.04C199.799 341.04 208.627 346.658 218.257 353.078C228.69 359.498 240.727 367.523 264 367.523C287.273 367.523 299.31 359.498 309.743 353.078C320.176 346.658 328.201 341.04 346.658 341.04C365.116 341.04 373.944 346.658 383.574 353.078C394.006 359.498 406.044 367.523 429.317 367.523C452.589 367.523 464.627 359.498 475.06 353.078C485.492 346.658 493.517 341.04 511.975 341.04C516.79 341.04 520 337.83 520 333.015C520 328.2 516.79 324.99 511.975 324.99C488.702 324.99 476.665 333.015 466.232 339.435C455.799 345.855 447.774 351.473 429.317 351.473C410.859 351.473 402.031 345.855 392.401 339.435C381.969 333.015 369.931 324.99 346.658 324.99C323.386 324.99 311.348 333.015 300.915 339.435C290.483 345.855 282.458 351.473 264 351.473C245.542 351.473 236.715 345.855 227.085 339.435C216.652 333.015 204.614 324.99 181.342 324.99C158.069 324.99 146.031 333.015 135.599 339.435C125.166 345.855 117.141 351.473 98.6834 351.473C80.2257 351.473 71.3981 345.855 61.768 339.435C51.3354 333.015 39.2978 324.99 16.0251 324.99C11.21 324.99 8 328.2 8 333.015C8 337.83 11.21 341.04 16.0251 341.04V341.04Z" fill="black"/>
<path d="M16.0251 408.451C34.4828 408.451 43.3103 414.068 52.9404 420.488C63.373 426.908 75.4107 434.934 98.6834 434.934C121.956 434.934 133.994 426.908 144.426 420.488C154.859 414.068 162.884 408.451 181.342 408.451C199.799 408.451 208.627 414.068 218.257 420.488C228.69 426.908 240.727 434.934 264 434.934C287.273 434.934 299.31 426.908 309.743 420.488C320.176 414.068 328.201 408.451 346.658 408.451C365.116 408.451 373.944 414.068 383.574 420.488C394.006 426.908 406.044 434.934 429.317 434.934C452.589 434.934 464.627 426.908 475.06 420.488C485.492 414.068 493.517 408.451 511.975 408.451C516.79 408.451 520 405.241 520 400.426C520 395.611 516.79 392.401 511.975 392.401C488.702 392.401 476.665 400.426 466.232 406.846C455.799 413.266 447.774 418.883 429.317 418.883C410.859 418.883 402.031 413.266 392.401 406.846C381.969 400.426 369.931 392.401 346.658 392.401C323.386 392.401 311.348 400.426 300.915 406.846C290.483 413.266 282.458 418.883 264 418.883C245.542 418.883 236.715 413.266 227.085 406.846C216.652 400.426 204.614 392.401 181.342 392.401C158.069 392.401 146.031 400.426 135.599 406.846C125.166 413.266 117.141 418.883 98.6834 418.883C80.2257 418.883 71.3981 413.266 61.768 406.846C51.3354 400.426 39.2978 392.401 16.0251 392.401C11.21 392.401 8 395.611 8 400.426C8 405.241 11.21 408.451 16.0251 408.451V408.451Z" fill="black"/>
</svg>
