<svg width="514" height="512" viewBox="0 0 514 512" fill="none" xmlns="http://www.w3.org/2000/svg">
<path fill-rule="evenodd" clip-rule="evenodd" d="M78.1113 246.856C78.1113 204.782 112.219 170.674 154.293 170.674H229.874C271.948 170.674 306.056 204.782 306.056 246.856V284.646H295.898V246.856C295.898 210.392 266.338 180.832 229.874 180.832H154.293C117.829 180.832 88.2689 210.392 88.2689 246.856V284.646H78.1113V246.856Z" fill="black"/>
<path fill-rule="evenodd" clip-rule="evenodd" d="M349.982 357.783H28.7466V347.625H349.982V357.783Z" fill="black"/>
<path fill-rule="evenodd" clip-rule="evenodd" d="M26.3911 318.676C26.3911 295.574 45.1192 276.845 68.2214 276.845C91.3236 276.845 110.052 295.573 110.052 318.676V349.983H99.8941V318.676C99.8941 301.183 85.7137 287.003 68.2214 287.003C50.7291 287.003 36.5487 301.183 36.5487 318.676V412.801C36.5487 432.435 52.4657 448.352 72.1003 448.352H312.075C331.709 448.352 347.626 432.435 347.626 412.801V318.676C347.626 301.183 333.446 287.003 315.954 287.003C298.461 287.003 284.281 301.183 284.281 318.676V349.983H274.123V318.676C274.123 295.574 292.851 276.845 315.954 276.845C339.056 276.845 357.784 295.574 357.784 318.676V412.801C357.784 438.045 337.319 458.51 312.075 458.51H72.1003C46.8558 458.51 26.3911 438.045 26.3911 412.801V318.676Z" fill="black"/>
<path fill-rule="evenodd" clip-rule="evenodd" d="M73.0273 505.994L94.806 451.547L104.237 455.319L82.4584 509.766L73.0273 505.994Z" fill="black"/>
<path fill-rule="evenodd" clip-rule="evenodd" d="M288.384 451.432L311.483 505.332L302.147 509.333L279.047 455.434L288.384 451.432Z" fill="black"/>
<path d="M126.742 202.976H137.631V213.865H126.742V202.976Z" fill="black"/>
<path d="M126.742 241.09H137.631V251.98H126.742V241.09Z" fill="black"/>
<path d="M126.742 279.201H137.631V290.091H126.742V279.201Z" fill="black"/>
<path d="M126.742 317.317H137.631V328.206H126.742V317.317Z" fill="black"/>
<path d="M186.636 202.976H197.525V213.865H186.636V202.976Z" fill="black"/>
<path d="M186.636 241.09H197.525V251.98H186.636V241.09Z" fill="black"/>
<path d="M186.636 279.201H197.525V290.091H186.636V279.201Z" fill="black"/>
<path d="M186.636 317.317H197.525V328.206H186.636V317.317Z" fill="black"/>
<path d="M241.089 202.976H251.979V213.865H241.089V202.976Z" fill="black"/>
<path d="M241.089 241.09H251.979V251.98H241.089V241.09Z" fill="black"/>
<path d="M241.089 279.201H251.979V290.091H241.089V279.201Z" fill="black"/>
<path d="M241.089 317.317H251.979V328.206H241.089V317.317Z" fill="black"/>
<path fill-rule="evenodd" clip-rule="evenodd" d="M418.04 143.818C447.011 143.818 470.496 120.332 470.496 91.3617C470.496 62.391 447.011 38.9056 418.04 38.9056C389.07 38.9056 365.584 62.391 365.584 91.3617C365.584 120.332 389.07 143.818 418.04 143.818ZM418.04 153.975C452.621 153.975 480.654 125.942 480.654 91.3617C480.654 56.7811 452.621 28.748 418.04 28.748C383.46 28.748 355.427 56.7811 355.427 91.3617C355.427 125.942 383.46 153.975 418.04 153.975Z" fill="black"/>
<path fill-rule="evenodd" clip-rule="evenodd" d="M410.237 83.5609H458.873V93.7185H420.395V132.197H410.237V83.5609Z" fill="black"/>
<path fill-rule="evenodd" clip-rule="evenodd" d="M493 360.141H392.07C386.46 360.141 381.912 364.689 381.912 370.299V373.226C381.912 378.835 386.46 383.383 392.07 383.383H493C498.61 383.383 503.158 378.835 503.158 373.226V370.299C503.158 364.689 498.61 360.141 493 360.141ZM392.07 349.983C380.85 349.983 371.754 359.079 371.754 370.299V373.226C371.754 384.445 380.85 393.541 392.07 393.541H493C504.22 393.541 513.316 384.445 513.316 373.226V370.299C513.316 359.079 504.22 349.983 493 349.983H392.07Z" fill="black"/>
<path fill-rule="evenodd" clip-rule="evenodd" d="M437.461 502.436V393.542H447.619V502.436H437.461Z" fill="black"/>
<path fill-rule="evenodd" clip-rule="evenodd" d="M469.763 507.511H415.316V497.353H469.763V507.511Z" fill="black"/>
<path fill-rule="evenodd" clip-rule="evenodd" d="M481.387 327.475H463.589V345.272H481.387V327.475ZM453.432 317.317V355.43H491.544V317.317H453.432Z" fill="black"/>
<path fill-rule="evenodd" clip-rule="evenodd" d="M459.736 300.114L476.07 316.448L468.888 323.631L452.554 307.297L459.736 300.114Z" fill="black"/>
<path fill-rule="evenodd" clip-rule="evenodd" d="M477.566 300.982V320.039H467.408V300.982H477.566Z" fill="black"/>
<path fill-rule="evenodd" clip-rule="evenodd" d="M492.408 307.297L476.074 323.631L468.891 316.448L485.225 300.114L492.408 307.297Z" fill="black"/>
<path fill-rule="evenodd" clip-rule="evenodd" d="M416.048 298.37C417.779 295.644 415.821 292.081 412.593 292.081C409.364 292.081 407.406 295.644 409.137 298.37C410.745 300.902 414.44 300.902 416.048 298.37ZM400.562 303.816C406.16 312.63 419.025 312.63 424.623 303.816C430.649 294.327 423.832 281.924 412.593 281.924C401.353 281.924 394.536 294.327 400.562 303.816Z" fill="black"/>
<path fill-rule="evenodd" clip-rule="evenodd" d="M407.514 349.982V309.147H417.672V349.982H407.514Z" fill="black"/>
</svg>
